<?xml version="1.0" encoding="UTF-8" standalone="no"?>
<!-- Created with Inkscape (http://www.inkscape.org/) -->

<svg
   xmlns:dc="http://purl.org/dc/elements/1.1/"
   xmlns:cc="http://creativecommons.org/ns#"
   xmlns:rdf="http://www.w3.org/1999/02/22-rdf-syntax-ns#"
   xmlns:svg="http://www.w3.org/2000/svg"
   xmlns="http://www.w3.org/2000/svg"
   xmlns:xlink="http://www.w3.org/1999/xlink"
   xmlns:sodipodi="http://sodipodi.sourceforge.net/DTD/sodipodi-0.dtd"
   xmlns:inkscape="http://www.inkscape.org/namespaces/inkscape"
   version="1.1"
   width="528.86401"
   height="342.715"
   id="svg2"
   xml:space="preserve"
   inkscape:version="0.91 r13725"
   sodipodi:docname="The_Family_Channel.svg"><sodipodi:namedview
     pagecolor="#ffffff"
     bordercolor="#666666"
     borderopacity="1"
     objecttolerance="10"
     gridtolerance="10"
     guidetolerance="10"
     inkscape:pageopacity="0"
     inkscape:pageshadow="2"
     inkscape:window-width="1680"
     inkscape:window-height="931"
     id="namedview2992"
     showgrid="false"
     fit-margin-top="0"
     fit-margin-left="0"
     fit-margin-right="0"
     fit-margin-bottom="0"
     inkscape:zoom="1"
     inkscape:cx="119.43176"
     inkscape:cy="181.1582"
     inkscape:window-x="0"
     inkscape:window-y="1"
     inkscape:window-maximized="1"
     inkscape:current-layer="g5784" /><metadata
     id="metadata8"><rdf:RDF><cc:Work
         rdf:about=""><dc:format>image/svg+xml</dc:format><dc:type
           rdf:resource="http://purl.org/dc/dcmitype/StillImage" /><dc:title></dc:title></cc:Work></rdf:RDF></metadata><defs
     id="defs6"><linearGradient
       id="linearGradient5531"><stop
         style="stop-color:#ff8800;stop-opacity:1;"
         offset="0"
         id="stop5533" /><stop
         style="stop-color:#ffff00;stop-opacity:1;"
         offset="1"
         id="stop5535" /></linearGradient><linearGradient
       id="linearGradient5521"><stop
         style="stop-color:#8888ff;stop-opacity:1;"
         offset="0"
         id="stop5523" /><stop
         style="stop-color:#0000ff;stop-opacity:1;"
         offset="1"
         id="stop5525" /></linearGradient><linearGradient
       id="linearGradient5413"><stop
         style="stop-color:#ffffff;stop-opacity:0;"
         offset="0"
         id="stop5415" /><stop
         id="stop5427"
         offset="0.22"
         style="stop-color:#ffffff;stop-opacity:0.53333336;" /><stop
         id="stop5421"
         offset="0.5"
         style="stop-color:#ffffff;stop-opacity:0;" /><stop
         id="stop5429"
         offset="0.78233635"
         style="stop-color:#ffffff;stop-opacity:0.53333336;" /><stop
         style="stop-color:#ffffff;stop-opacity:0;"
         offset="1"
         id="stop5423" /></linearGradient><linearGradient
       id="linearGradient5397"><stop
         id="stop5405"
         offset="0"
         style="stop-color:#ff0000;stop-opacity:1;" /><stop
         style="stop-color:#ff0000;stop-opacity:1;"
         offset="0.5"
         id="stop5409" /><stop
         style="stop-color:#000000;stop-opacity:1;"
         offset="1"
         id="stop5401" /></linearGradient><clipPath
       clipPathUnits="userSpaceOnUse"
       id="clipPath5393"><path
         id="path5395"
         d="m 18.078125,5.2219473 c -3.845753,0 -6.96875,3.1388537 -6.96875,6.9999997 0,3.861147 3.122997,7 6.96875,7 3.845753,0 6.96875,-3.138853 6.96875,-7 0,-3.861146 -3.122997,-6.9999997 -6.96875,-6.9999997 z"
         style="fill:#ff0000;fill-opacity:1;stroke:none"
         inkscape:connector-curvature="0" /></clipPath><linearGradient
       inkscape:collect="always"
       xlink:href="#linearGradient5413"
       id="linearGradient5419"
       x1="11.03125"
       y1="4.7536392"
       x2="24.96875"
       y2="18.65214"
       gradientUnits="userSpaceOnUse" /><clipPath
       clipPathUnits="userSpaceOnUse"
       id="clipPath5459"><path
         style="fill:#000000;fill-opacity:1;stroke:none"
         d="m 18,4.65625 c -3.845753,0 -6.96875,3.1388538 -6.96875,7 0,3.861147 3.122997,7 6.96875,7 3.845753,0 6.96875,-3.138853 6.96875,-7 0,-3.8611462 -3.122997,-7 -6.96875,-7 z"
         id="path5461"
         inkscape:connector-curvature="0" /></clipPath><linearGradient
       inkscape:collect="always"
       xlink:href="#linearGradient5413"
       id="linearGradient5519"
       gradientUnits="userSpaceOnUse"
       x1="11.03125"
       y1="4.7536392"
       x2="24.96875"
       y2="18.65214" /><linearGradient
       inkscape:collect="always"
       xlink:href="#linearGradient5521"
       id="linearGradient5574"
       gradientUnits="userSpaceOnUse"
       x1="17.881145"
       y1="0.70560127"
       x2="17.881145"
       y2="22.667353" /><radialGradient
       inkscape:collect="always"
       xlink:href="#linearGradient5397"
       id="radialGradient5576"
       gradientUnits="userSpaceOnUse"
       gradientTransform="matrix(1,0,0,1.0044843,0,-0.05227018)"
       cx="18"
       cy="11.65625"
       fx="18"
       fy="11.65625"
       r="6.96875" /><linearGradient
       inkscape:collect="always"
       xlink:href="#linearGradient5413"
       id="linearGradient5578"
       gradientUnits="userSpaceOnUse"
       x1="11.03125"
       y1="4.7536392"
       x2="24.96875"
       y2="18.65214" /><linearGradient
       inkscape:collect="always"
       xlink:href="#linearGradient5531"
       id="linearGradient5580"
       gradientUnits="userSpaceOnUse"
       x1="17.460663"
       y1="8.1808596"
       x2="19.563086"
       y2="13.693856" /><linearGradient
       inkscape:collect="always"
       xlink:href="#linearGradient5531"
       id="linearGradient5583"
       gradientUnits="userSpaceOnUse"
       x1="17.460663"
       y1="8.1808596"
       x2="19.563086"
       y2="13.693856"
       gradientTransform="matrix(15,0,0,15,0.17855838,-325.98632)" /><radialGradient
       inkscape:collect="always"
       xlink:href="#linearGradient5397"
       id="radialGradient5615"
       gradientUnits="userSpaceOnUse"
       gradientTransform="matrix(15,0,0,15.067265,0.17855838,-326.77037)"
       cx="18"
       cy="11.65625"
       fx="18"
       fy="11.65625"
       r="6.96875" /><linearGradient
       inkscape:collect="always"
       xlink:href="#linearGradient5521"
       id="linearGradient5618"
       gradientUnits="userSpaceOnUse"
       x1="17.881145"
       y1="0.70560127"
       x2="17.881145"
       y2="22.667353"
       gradientTransform="matrix(15,0,0,15,0.17855838,-325.98632)" /><linearGradient
       inkscape:collect="always"
       xlink:href="#linearGradient5413"
       id="linearGradient5621"
       gradientUnits="userSpaceOnUse"
       x1="11.03125"
       y1="4.7536392"
       x2="24.96875"
       y2="18.65214" /><radialGradient
       inkscape:collect="always"
       xlink:href="#linearGradient5397"
       id="radialGradient5627"
       gradientUnits="userSpaceOnUse"
       gradientTransform="matrix(15,0,0,15.067265,24.220189,-312.19614)"
       cx="18"
       cy="11.65625"
       fx="18"
       fy="11.65625"
       r="6.96875" /><radialGradient
       inkscape:collect="always"
       xlink:href="#linearGradient5397"
       id="radialGradient5629"
       gradientUnits="userSpaceOnUse"
       gradientTransform="matrix(15,0,0,15.067265,0.19131257,-0.15518)"
       cx="18"
       cy="11.65625"
       fx="18"
       fy="11.65625"
       r="6.96875" /><radialGradient
       inkscape:collect="always"
       xlink:href="#linearGradient5397"
       id="radialGradient5638"
       gradientUnits="userSpaceOnUse"
       gradientTransform="matrix(15,0,0,15.067265,14.178558,-324.35909)"
       cx="18"
       cy="11.65625"
       fx="18"
       fy="11.65625"
       r="6.96875" /><radialGradient
       inkscape:collect="always"
       xlink:href="#linearGradient5397"
       id="radialGradient5640"
       gradientUnits="userSpaceOnUse"
       gradientTransform="matrix(15,0,0,15.067265,0.19131257,-0.15518)"
       cx="18"
       cy="11.65625"
       fx="18"
       fy="11.65625"
       r="6.96875" /><filter
       inkscape:collect="always"
       id="filter5754"
       x="-0.63287741"
       width="2.2657547"
       y="-0.57036984"
       height="2.1407397"><feGaussianBlur
         inkscape:collect="always"
         stdDeviation="31.878267"
         id="feGaussianBlur5756" /></filter><clipPath
       clipPathUnits="userSpaceOnUse"
       id="clipPath5762"><path
         inkscape:connector-curvature="0"
         style="fill:url(#radialGradient5766);fill-opacity:1;stroke:none"
         d="m 270.25447,60.401901 c -63.23683,0 -114.58917,51.613089 -114.58917,115.103029 0,63.48995 51.35234,115.10302 114.58917,115.10302 63.23682,0 114.58917,-51.61307 114.58917,-115.10302 0,-63.48994 -51.35235,-115.103029 -114.58917,-115.103029 z"
         id="path5764" /></clipPath><radialGradient
       inkscape:collect="always"
       xlink:href="#linearGradient5397"
       id="radialGradient5766"
       gradientUnits="userSpaceOnUse"
       gradientTransform="matrix(16.443289,0,0,16.517026,-25.724737,-17.021654)"
       cx="18"
       cy="11.65625"
       fx="18"
       fy="11.65625"
       r="6.96875" /></defs><g
     id="g5482"
     transform="translate(0.01275419,318.6025)"><g
       id="g5784"><path
         inkscape:connector-curvature="0"
         style="fill:url(#linearGradient5618);fill-opacity:1;stroke:none"
         d="m 270.17856,-318.01757 c -91.54899,0 -165.46875,74.55288 -165.46875,166.875 0,92.32212 73.91976,166.875 165.46875,166.875 91.54899,0 165.46875,-74.55288 165.46875,-166.875 0,-92.32212 -73.91976,-166.875 -165.46875,-166.875 z m 0,54.84375 c 61.39635,0 111.09375,50.11641 111.09375,112.03125 0,61.91484 -49.6974,112.03125 -111.09375,112.03125 -61.39635,0 -111.09375,-50.11641 -111.09375,-112.03125 0,-61.91484 49.6974,-112.03125 111.09375,-112.03125 z"
         id="path3841" /><path
         inkscape:connector-curvature="0"
         style="fill:url(#radialGradient5615);fill-opacity:1;stroke:none"
         d="m 270.17856,-256.14257 c -57.6863,0 -104.53125,47.08281 -104.53125,105 0,57.9172 46.84495,105 104.53125,105 57.68629,0 104.53125,-47.0828 104.53125,-105 0,-57.91719 -46.84496,-105 -104.53125,-105 z"
         id="path3848" /><g
         id="g5768"
         transform="translate(0,11.58872)"><path
           style="fill:#ffffff;fill-opacity:1;stroke:none;filter:url(#filter5754)"
           d="m 242.84914,101.8926 c -16.49964,-0.26062 -33.99838,10.05677 -37.90625,26.78125 -4.129,19.89744 17.94563,38.90737 37.09375,32.8125 6.10559,-2.83817 5.35066,-11.36274 2.3125,-16.21875 -1.42755,-3.57189 -5.22782,-5.73048 -6.53125,-9.25 6.90297,-5.48458 16.29506,-2.40207 23.59375,0.5625 7.30153,2.39966 16.8195,-1.45624 18.0625,-9.5625 1.8657,-8.38935 -4.08247,-16.51329 -11.65625,-19.5625 -7.5584,-4.15821 -16.35249,-5.81855 -24.96875,-5.5625 z m 61.97091,91.94721 c -8.74779,0.43561 -12.63364,13.02638 -6.8125,19.15625 0.88396,3.04847 5.01549,4.47764 5.53125,7.28125 -6.6705,5.41311 -16.08561,2.59193 -23.09375,-0.46875 -7.25215,-2.65494 -17.58635,-0.22822 -19.6875,8.0625 -2.30212,7.83386 3.7655,14.93133 9.9375,18.875 15.29052,10.74217 37.16012,10.14792 52.625,0.21875 10.63801,-7.27443 17.18166,-21.96402 11.59375,-34.375 -4.65616,-11.37942 -16.7798,-19.30652 -29.21875,-18.75 -0.29213,-0.0118 -0.59281,-0.014 -0.875,0 z"
           transform="matrix(0.91222625,0,0,0.91222625,23.645339,-322.83149)"
           id="path5632"
           inkscape:connector-curvature="0"
           sodipodi:nodetypes="ccccccccccccccccccc"
           clip-path="url(#clipPath5762)" /><g
           id="g5463"
           transform="matrix(15,0,0,15,0.17855955,-337.57504)"><g
             id="g5378"
             style="fill:#000000"
             transform="translate(-0.078125,-0.56569725)"
             clip-path="url(#clipPath5393)"><path
               inkscape:connector-curvature="0"
               id="rect5285"
               d="m 9.46875,5.5518255 0,0.28125 17.21875,0 0,-0.28125 -17.21875,0 z"
               style="fill:#000000;fill-opacity:1;stroke:none" /><path
               style="fill:#000000;fill-opacity:1;stroke:none"
               d="m 9.46875,6.8577249 0,0.28125 17.21875,0 0,-0.28125 -17.21875,0 z"
               id="path5288"
               inkscape:connector-curvature="0" /><path
               inkscape:connector-curvature="0"
               id="path5298"
               d="m 9.46875,8.1636243 0,0.28125 17.21875,0 0,-0.28125 -17.21875,0 z"
               style="fill:#000000;fill-opacity:1;stroke:none" /><path
               inkscape:connector-curvature="0"
               id="path5306"
               d="m 9.46875,9.4695237 0,0.28125 17.21875,0 0,-0.28125 -17.21875,0 z"
               style="fill:#000000;fill-opacity:1;stroke:none" /><path
               style="fill:#000000;fill-opacity:1;stroke:none"
               d="m 9.46875,10.775423 0,0.28125 17.21875,0 0,-0.28125 -17.21875,0 z"
               id="path5308"
               inkscape:connector-curvature="0" /><path
               inkscape:connector-curvature="0"
               id="path5320"
               d="m 9.46875,12.081322 0,0.28125 17.21875,0 0,-0.28125 -17.21875,0 z"
               style="fill:#000000;fill-opacity:1;stroke:none" /><path
               style="fill:#000000;fill-opacity:1;stroke:none"
               d="m 9.46875,13.387222 0,0.28125 17.21875,0 0,-0.28125 -17.21875,0 z"
               id="path5322"
               inkscape:connector-curvature="0" /><path
               style="fill:#000000;fill-opacity:1;stroke:none"
               d="m 9.46875,14.693121 0,0.28125 17.21875,0 0,-0.28125 -17.21875,0 z"
               id="path5324"
               inkscape:connector-curvature="0" /><path
               inkscape:connector-curvature="0"
               id="path5326"
               d="m 9.46875,15.999021 0,0.281249 17.21875,0 0,-0.281249 -17.21875,0 z"
               style="fill:#000000;fill-opacity:1;stroke:none" /><path
               inkscape:connector-curvature="0"
               id="path5342"
               d="m 9.46875,17.30492 0,0.28125 17.21875,0 0,-0.28125 -17.21875,0 z"
               style="fill:#000000;fill-opacity:1;stroke:none" /><path
               style="fill:#000000;fill-opacity:1;stroke:none"
               d="m 9.46875,18.610819 0,0.28125 17.21875,0 0,-0.28125 -17.21875,0 z"
               id="path5344"
               inkscape:connector-curvature="0" /></g></g></g><path
         inkscape:connector-curvature="0"
         style="fill:#ffffff;fill-opacity:1;fill-rule:nonzero;stroke:none"
         d="m 245.90668,-272.9557 -4.21125,-21.81187 -6.33562,1.75875 -0.345,-1.40625 -0.35055,-1.39312 18.27375,-3.51563 0,1.39875 0.3582,1.39875 -6.32813,0.71813 4.21125,21.78937 -2.8125,0.345 -2.46,0.71812 z"
         id="path3019" /><path
         inkscape:connector-curvature="0"
         style="fill:#ffffff;fill-opacity:1;fill-rule:nonzero;stroke:none"
         d="m 267.00043,-300.38507 0,9.85125 5.6175,0.34313 5.2725,-0.34313 0.36,-9.50625 5.2725,0 -0.3582,24.6075 -2.7975,-0.34312 -2.82,0.34312 0.34305,-11.95125 -5.6175,-0.3525 -5.2725,0 -0.345,11.96063 -2.4675,-0.3525 -2.8125,0.3525 0.35055,-24.60938 2.82,0.345 2.45438,-0.345 z"
         id="path3017" /><path
         inkscape:connector-curvature="0"
         style="fill:#ffffff;fill-opacity:1;fill-rule:nonzero;stroke:none"
         d="m 306.01543,-293.35382 -8.07,-1.75875 -1.41375,7.37625 3.86625,0.71812 4.21875,0.34313 -0.3582,1.75875 0,1.41375 -4.56367,-1.06312 -3.50813,-0.69563 -1.40625,9.13313 8.07938,0.69562 -0.345,1.75875 -0.35813,1.41375 -13.35937,-2.45437 4.21875,-23.91376 13.7175,2.46938 -0.7182,1.39125 0,1.41375 z"
         id="path3015" /><path
         inkscape:connector-curvature="0"
         style="fill:#ffffff;fill-opacity:1;fill-rule:nonzero;stroke:none"
         d="m 190.53418,-18.974195 c -3.62475,-2.21175 -5.43375,-5.56632 -5.43375,-10.012125 0,-2.109375 1.0401,-4.797375 3.1425,-8.09325 2.11688,-3.28125 5.40563,-4.90725 9.85125,-4.90725 2.58563,0 5.22188,0.747 7.90875,2.28525 2.69625,1.52343 4.63688,3.44232 5.80875,5.808 l -3.17062,2.453625 c 0,-2.81982 -0.87195,-4.6875 -2.63813,-5.625 -1.74937,-0.94485 -3.33937,-1.40625 -4.73812,-1.40625 -3.52313,0 -6.2175,1.516125 -8.0925,4.577625 -1.8675,3.03957 -2.805,5.617695 -2.805,7.72707 0,2.797875 1.04625,4.921875 3.14812,6.3135 2.11688,1.4136 4.6875,2.124 7.74938,2.124 l -2.11688,2.109375 c -2.11687,0 -4.98,-1.12065 -8.61375,-3.35457 z"
         id="path3013" /><path
         inkscape:connector-curvature="0"
         style="fill:#ffffff;fill-opacity:1;fill-rule:nonzero;stroke:none"
         d="m 221.64043,-31.095695 -3.50062,9.140625 4.92187,2.102055 5.26688,1.77975 3.51562,-9.15525 2.475,1.062 2.44688,1.0473 -8.7825,22.85157 -2.4675,-1.04745 -2.45438,-1.062 4.21125,-10.898445 -5.2725,-2.102055 -4.91437,-2.109375 -4.57875,11.24268 -2.10188,-1.062 -2.8125,-0.69585 8.775,-22.85157 2.475,1.062 2.7975,0.69585 z"
         id="path3011" /><path
         inkscape:connector-curvature="0"
         style="fill:#ffffff;fill-opacity:1;fill-rule:nonzero;stroke:none"
         d="m 285.63981,-4.728515 -0.70305,-16.51611 1.39875,0 1.41375,-0.36615 1.04805,24.61668 -3.1575,0 -12.30375,-12.65625 -4.21875,-3.86718 0.70305,17.233875 -2.82,0 -1.0557,-24.265125 3.51562,-0.34425 16.17938,16.164555 z"
         id="path3007" /><path
         inkscape:connector-curvature="0"
         style="fill:#ffffff;fill-opacity:1;fill-rule:nonzero;stroke:none"
         d="m 315.87418,-10.69775 -3.86625,-16.186515 1.39875,-0.34425 1.05375,-0.3516 5.9775,23.547375 -2.8125,0.71775 -15.11062,-9.85107 -4.56938,-3.171375 4.21125,16.88231997 -1.39875,0.3516 -1.41375,0.34425003 -5.9775,-23.547375 3.51563,-1.0401 18.99187,12.648945 z"
         id="path3005" /><path
         inkscape:connector-curvature="0"
         style="fill:#ffffff;fill-opacity:1;fill-rule:nonzero;stroke:none"
         d="m 333.45231,-33.19775 -7.74188,3.164055 3.51563,7.03125 3.1575,-1.757805 3.87375,-2.124015 0.7107,1.4136 0.68805,1.40625 -4.20375,1.4136 -3.17063,1.757805 3.87375,8.09325 7.03125,-3.88182 0.70305,1.40625 0.69555,1.4136 -12.30375,5.61768 -10.54687,-22.14843 12.64875,-5.625 0.3582,1.40625 0.7107,1.4136 z"
         id="path3003" /><path
         inkscape:connector-curvature="0"
         style="fill:#ffffff;fill-opacity:1;fill-rule:nonzero;stroke:none"
         d="m 360.86668,-26.884265 1.0557,1.062 -11.6025,7.38282 -13.35187,-20.383305 2.44687,-1.40625 2.11688,-1.4136 11.94562,18.295875 6.68625,-4.92918 0.70305,1.39155 z"
         id="path3001" /><path
         inkscape:connector-curvature="0"
         id="path14"
         style="fill:#ffffff;fill-opacity:1;fill-rule:nonzero;stroke:none"
         d="m 244.49293,-8.58839 6.33563,1.062 -1.75125,-8.811 -4.58438,7.749 m -6.67312,8.43751497 -1.75688,-0.34425 14.42063,-22.50730497 2.45437,0.3516 5.6325,26.36718 -2.8125,-0.7104 -3.165,-0.3516 -1.41375,-8.078625 -8.085,-1.40625 -3.86062,7.03124997 -1.41375,-0.3516 z" /><path
         inkscape:connector-curvature="0"
         style="fill:#000000;fill-opacity:1;fill-rule:nonzero;stroke:none"
         d="m 429.94452,-305.89372 c -17.0546,2.64688 -31.27605,15.64823 -41.25,37.03125 -9.90654,21.2385 -14.0625,43.97722 -14.0625,68.4375 0,5.34991 0.37065,10.64759 0.9375,15.9375 -3.08757,8.80151 -7.34333,18.78433 -12.65625,29.06251 l -0.46875,0 c -1.45665,1.91088 -2.74197,3.79347 -4.21875,5.625 0,-6.482 1.3515,-14.9001 3.75,-24.375 1.245,-4.9046 2.16151,-9.01826 2.8125,-12.18751 0.651,-3.16925 0.9375,-5.05351 0.9375,-7.03125 0,-3.60712 -0.5475,-7.12642 -2.8125,-9.375 -2.44587,-2.46017 -6.21405,-3.28125 -10.78125,-3.28125 -2.30273,0 -4.38911,0.89282 -6.09375,2.34375 -1.70465,1.45094 -3.17292,2.98549 -4.21875,5.15625 -2.09168,4.34152 -3.25524,10.34917 -4.21875,17.8125 -0.9084,6.955 -2.4551,14.04589 -3.75,21.09376 -1.3182,-6.719 -2.86167,-13.93632 -4.21875,-20.15626 -1.46145,-6.69826 -2.8425,-12.07006 -5.15625,-15.9375 -1.15695,-1.93372 -2.9148,-3.46217 -4.6875,-4.6875 -1.7727,-1.22533 -3.88418,-1.62456 -6.09375,-1.40625 -4.60119,0.53582 -8.38409,3.3626 -11.71875,7.5 -3.33467,4.1374 -6.57978,9.8084 -9.375,16.875 -3.65217,10.75508 -7.52519,21.53252 -11.25,32.34376 -0.1947,-0.5817 -0.26085,-0.7746 -0.46875,-1.40625 -1.5117,-4.60986 -3.54851,-8.33825 -6.09375,-11.25 -2.54525,-2.91176 -5.95625,-4.6875 -9.84375,-4.6875 -8.02215,0 -14.40282,5.8297 -19.6875,15 -0.75225,1.30455 -1.2261,1.71948 -1.875,2.8125 -0.081,-4.20909 0.2106,-8.59187 -0.46875,-11.71875 -1.1511,-5.20884 -5.4192,-8.95814 -10.78125,-9.84375 -4.03751,-0.80745 -8.31986,0.93315 -11.71875,3.75 -3.3989,2.81683 -6.41463,6.745 -9.84375,12.1875 -2.74199,4.35573 -5.99403,12.14985 -8.90625,17.8125 0.7158,-4.35828 1.64562,-8.56202 1.875,-11.25 0.1485,-1.73453 0.0405,-3.47988 0,-4.6875 -0.0405,-1.20765 0.71385,-1.95837 -0.9375,-4.21875 a 4.4250315,4.4250315 0 0 0 -0.46875,-0.46875 4.4250315,4.4250315 0 0 0 -0.9375,-0.46875 4.4250315,4.4250315 0 0 0 -2.34375,-0.46875 c 0.048,-0.7953 -0.117,-1.58178 0,-2.8125 0.1788,-1.89941 0.39285,-3.62477 0.46875,-4.6875 0.0765,-1.06275 0,-1.03905 0,-1.875 0,-3.18779 0.01,-6.37944 -1.875,-8.90625 -2.28083,-2.98796 -6.18039,-3.75001 -10.3125,-3.75001 -8.25768,0 -17.01306,5.11393 -27.65625,14.06251 -10.05108,8.45935 -18.10749,20.65593 -24.375,35.625 -1.50783,-0.7323 -2.81372,-1.875 -4.6875,-1.875 -3.03755,0 -4.18803,1.1106 -6.09375,2.34375 -1.90572,1.23315 -4.18399,2.96233 -7.03125,5.15625 -2.82722,2.17272 -5.88614,4.04131 -8.90625,6.09375 0.9522,-4.61798 2.0518,-9.22169 2.8125,-14.0625 1.30365,-8.34326 1.84816,-12.52296 1.40625,-15.9375 -0.31332,-1.95086 -1.307,-3.49812 -2.8125,-4.6875 5.92006,-5.43852 13.00194,-11.24292 24.84375,-18.75 14.43084,-9.15127 25.67923,-16.42059 33.75,-21.56251 4.14682,-2.64724 7.18938,-4.69548 9.375,-6.5625 1.09275,-0.93351 2.06367,-1.87308 2.8125,-2.8125 0.7488,-0.93942 1.40625,-1.96834 1.40625,-4.21875 0,-3.53285 -1.4745,-6.81559 -4.21875,-9.84375 -1.33965,-1.47784 -2.59799,-2.85756 -4.21875,-3.75 -1.505,-0.82869 -4.05293,-0.95005 -6.09375,0 -0.15705,0.073 -0.31845,-0.0901 -0.46875,0 -21.61123,10.94928 -46.47747,27.26905 -74.062505,49.21876 -27.751971,22.09198 -52.810738,46.23717 -75.9375,72.1875 -1.972657,2.31169 -1.908897,5.68992 -0.9375,7.968745 0.9714,2.27883 2.589347,4.20606 4.6875,6.5625 2.185151,2.437035 4.361388,4.17528 7.03125,5.15625 2.669862,0.981 6.394172,0.62295 8.4375,-1.40625 a 4.4250315,4.4250315 0 0 0 0,-0.46875 c 10.339248,-11.271835 20.076929,-22.189645 29.53125,-32.343745 6.237816,-6.69026 12.170573,-11.92854 18.28125,-17.34375 l -1.40625,8.90625 a 4.4250315,4.4250315 0 0 0 0,0.46875 l -3.75,26.25 c -6.065943,4.025545 -11.785695,8.11096 -16.40625,12.187495 -5.024527,4.433835 -9.402016,8.7048 -14.0625,13.125 a 4.4250315,4.4250315 0 0 0 -0.46875,0 c -2.413995,2.29329 -4.259638,4.45533 -5.625,6.09375 -0.68268,0.81915 -0.921045,1.518885 -1.40625,2.34375 -0.485205,0.82485 -0.9375,1.5135 -0.9375,3.28125 0,3.84555 1.34175,5.7375 3.75,8.90625 1.26195,1.66593 2.456826,2.720925 3.75,3.75 1.29318,1.02915 2.947955,1.875 5.15625,1.875 2.55513,0 2.918586,-0.4191 3.75,-0.9375 0.83142,-0.5184 1.759062,-1.0437 2.8125,-1.875 2.106876,-1.66254 4.454771,-4.224255 7.96875,-7.5 2.998328,-2.801385 4.623984,-3.666885 7.03125,-5.625 -0.350505,1.83492 -0.660945,3.76812 -0.9375,5.625 -0.88872,5.92221 -0.9375,11.9127 -0.9375,18.75 0,5.737695 -0.2418,11.58909 -0.46875,16.875 -0.228375,5.138475 -0.70401,10.400295 -0.9375,15.46874997 0,3.53914503 0.69921,6.32373003 1.40625,8.43750003 0.98595,2.9274 2.827731,6.10899 6.09375,9.375 3.344223,3.352605 7.129457,5.625 11.71875,5.625 a 4.4250315,4.4250315 0 0 0 0.46875,0 c 3.352035,-0.4938 6.26459,-2.837055 7.5,-5.625 0.821475,-1.90194 1.20324,-3.76248 0.9375,-6.09375 -0.0201,-0.17565 0.03285,-0.2853 0,-0.46875 -0.0073,-0.17265 0.0141,-0.2997 0,-0.46875 -0.1458,-1.74639 -0.400275,-3.254985 -0.9375,-4.6875 -0.249495,-0.65175 -0.35337,-1.4652 -0.46875,-1.875 -0.0288,-0.102 -0.4194,0.09 -0.46875,0 0,-0.4575 -0.10275,-0.5319 0,-0.46875 0.0079,-16.566285 0.36321,-30.338475 0.9375,-41.25 0.53151,-10.357005 2.052395,-23.53455 3.750005,-38.90625 4.73423,-4.69221 8.84987,-9.226995 12.65625,-12.1875 4.20272,-3.270385 7.57276,-5.824615 10.3125,-7.968745 0.0919,-0.072 0.37627,0.072 0.46875,0 -0.91256,5.16858 -0.9375,10.728055 -0.9375,16.874995 0,6.38664 0.9492,12.248895 4.21875,17.34375 3.45196,5.427165 9.65623,8.4375 16.875,8.4375 4.69377,0 9.03573,-2.20044 12.65625,-6.09375 3.6205,-3.89331 7.02508,-9.481755 10.3125,-16.40625 1.04835,-2.214315 0.94935,-3.530745 1.875,-5.625 -0.21345,3.298395 -0.37485,7.23672 -0.46875,9.375 -0.075,1.711965 -0.4641,2.7261 -0.46875,3.75 -0.002,0.51195 -0.021,0.9966 0,1.40625 0.021,0.40965 0.0615,0.66405 0.46875,1.875 a 4.4250315,4.4250315 0 0 0 0,0.46875 c 1.1313,2.700885 3.51805,4.62486 6.09375,5.625 2.57569,1.0002 5.6157,0.9375 8.90625,0.9375 3.10603,0 6.55636,-0.44685 8.90625,-3.28125 a 4.4250315,4.4250315 0 0 0 0.46875,-0.9375 4.4250315,4.4250315 0 0 0 0.46875,-0.9375 c 3.93888,-18.604185 8.7256,-35.944605 14.0625,-51.562495 4.28262,-12.58625 8.8272,-20.93492 13.59375,-26.71875 0.069,0.75465 0.46875,0.9999 0.46875,1.875 0,4.24468 -0.705,13.60876 -1.875,27.1875 -1.1562,13.57806 -1.875,21.27808 -1.875,24.843745 0,5.12052 0.0435,9.26916 3.75,12.1875 1.92135,1.507965 4.11465,3.36384 6.5625,5.15625 1.56007,1.1334 3.27963,1.90302 5.15625,2.34375 1.87662,0.4407 4.36161,0.0495 6.09375,-0.9375 a 4.4250315,4.4250315 0 0 0 0.46875,-0.46875 4.4250315,4.4250315 0 0 0 0.46875,-0.46875 4.4250315,4.4250315 0 0 0 0.46875,-0.9375 4.4250315,4.4250315 0 0 0 0.46875,-1.40625 c 0.91905,-10.981725 2.22501,-24.727225 3.75,-41.249995 1.3488,-14.72339 6.77004,-23.77463 15.9375,-29.0625 0.4203,3.27904 0.9375,7.42144 0.9375,12.1875 0,2.95161 0.114,5.87949 0,8.4375 -0.105,2.54662 -0.46875,4.98064 -0.46875,7.96875 0,5.7034 0.82305,9.94752 2.8125,13.125 1.72989,2.76273 4.96768,5.31476 8.90625,7.03125 l 0,0.46875 c 0.129,0.054 0.33735,-0.0525 0.46875,0 3.91177,1.50247 8.10346,2.07195 11.71875,1.40625 1.66197,-0.3324 2.38237,-1.31521 2.8125,-1.875 0.43005,-0.5598 0.7689,-1.01415 0.9375,-1.40625 0.3372,-0.78405 0.26715,-1.03635 0.46875,-1.875 0.40305,-1.67721 1.00785,-4.19036 1.40625,-7.03125 0.7968,-5.68181 1.3449,-13.79316 2.34375,-24.84375 1.64608,-18.12158 6.3111,-30.23448 12.65625,-37.5 1.68832,3.30375 3.44349,6.55672 5.15625,9.84375 0.6846,18.21307 1.4202,36.37242 2.34375,54.375 a 4.4250315,4.4250315 0 0 0 0.9375,2.8125 c 2.27739,2.56955 4.46439,4.58053 6.5625,6.09375 2.50329,1.8018 5.64664,2.8125 8.90625,2.8125 2.37408,0 5.39139,-0.68145 7.5,-2.8125 1.9288,-1.91847 2.32051,-4.09794 2.8125,-6.5625 0.492,-2.46456 0.46875,-5.41259 0.46875,-8.90625 0,-2.91729 0.1365,-5.72324 0,-8.90625 -0.126,-3.16001 -0.46875,-6.20906 -0.46875,-8.90625 1.2969,2.06592 2.45398,3.78892 4.21875,5.15625 1.93965,1.50282 4.54485,2.34375 7.03125,2.34375 9.52209,0 17.71671,-6.08409 22.5,-16.40625 2.52106,-5.46201 4.04989,-10.92345 6.09375,-16.40625 0.47505,1.37505 0.35055,1.70608 0.9375,3.28125 3.24438,8.61358 10.41943,14.0625 19.21875,14.0625 8.38606,0 15.73578,-6.65624 23.4375,-18.28125 3.93084,-5.9217 8.7846,-16.43549 13.125,-24.84376 0.0555,6.86323 0.83025,12.88136 4.21875,17.34376 3.61848,4.76517 9.98749,6.5625 17.34375,6.5625 6.39648,0 12.44599,-2.59346 17.8125,-7.5 5.3665,-4.90655 10.03267,-11.9829 14.53125,-21.09376 1.14495,-2.3207 1.77745,-3.15721 2.8125,-5.15625 -1.36575,5.20869 -2.13308,8.09785 -3.75,14.53126 -4.42725,17.57119 -6.5625,35.75215 -6.5625,55.3125 0,7.54527 -0.489,16.17469 -1.40625,25.3125 -0.94665,9.281995 -1.88054,18.962125 -2.8125,29.531245 a 4.4250315,4.4250315 0 0 0 0,0.46875 c 0,4.678935 0.7239,8.99475 3.28125,12.65625 2.0377,2.921265 4.07907,5.753805 6.09375,8.4375 2.53203,3.37926 5.74351,5.625 9.84375,5.625 2.81164,0 5.17503,-1.39935 6.5625,-3.28125 a 4.4250315,4.4250315 0 0 0 0,-0.46875 c 1.15515,-1.619685 0.79515,-2.037225 0.9375,-2.8125 0.1425,-0.7752 0.37005,-1.30965 0.46875,-2.34375 0.1974,-2.06832 0.31965,-4.88163 0.46875,-8.4375 0.2982,-7.111725 0.2379,-17.51364 0.46875,-30.9375 0.48195,-26.743455 1.77732,-46.514515 3.28125,-59.531245 1.49055,-12.9575 4.82557,-30.32129 9.84375,-52.03126 2.52132,-10.91665 4.36758,-19.21985 5.625,-25.3125 0.62865,-3.04632 1.0833,-5.64517 1.40625,-7.5 0.32295,-1.85483 0.46875,-2.82757 0.46875,-4.21875 0,-3.05047 -0.20805,-5.55636 -1.875,-7.96875 -1.66697,-2.41239 -4.7621,-3.75 -7.5,-3.75 -5.97569,0 -10.41861,3.89708 -15.9375,10.3125 -5.51889,6.41542 -11.82191,15.75243 -19.21875,28.125 -7.26366,12.13617 -13.37693,20.87279 -17.8125,26.25 -1.5399,1.86681 -2.67122,2.76139 -3.75,3.75001 0.1095,-4.48278 1.44015,-13.47947 4.21875,-28.12501 1.458,-7.71501 2.94354,-13.74032 3.75,-17.8125 0.4032,-2.03609 0.72045,-3.54679 0.9375,-4.6875 0.108,-0.57036 -0.0645,-1.02451 0,-1.40625 0.0645,-0.38173 0,-0.39316 0,-1.40625 0,-4.2964 -0.9813,-8.17149 -4.21875,-10.3125 -2.17671,-1.44343 -4.9299,-2.26923 -8.90625,-3.28125 -3.12516,-0.62503 -6.8204,-0.32341 -9.375,1.875 -2.55461,2.19842 -3.13907,5.53254 -3.28125,8.90625 -0.19935,4.57986 -2.10365,10.11998 -5.15625,17.34375 -2.97287,7.04185 -9.31298,19.19201 -19.6875,36.09375 -5.14448,8.39147 -9.71238,14.74106 -13.125,18.75001 -1.70631,2.00446 -3.17816,3.43672 -4.21875,4.21875 -1.04055,0.78195 -1.41795,0.9375 -0.9375,0.9375 0.1215,0 0.19125,-0.005 -0.46875,-0.9375 -0.66,-0.9321 -1.60182,-2.70987 -2.34375,-5.625 -1.578,-6.19841 -2.8125,-12.87674 -2.8125,-20.15626 0,-3.1493 0.2838,-5.32992 0.46875,-7.03125 8.89065,-15.27813 18.51985,-33.79495 28.59375,-55.78125 10.2817,-22.45635 15.46875,-38.18423 15.46875,-49.21875 0,-3.61413 -0.174,-6.71831 -2.34375,-9.375 -2.1698,-2.65669 -5.9991,-3.78358 -9.375,-3.28125 z"
         id="path3066" /><path
         inkscape:connector-curvature="0"
         style="fill:#000000;fill-opacity:1;fill-rule:nonzero;stroke:none"
         d="m 414.55356,-318.48632 c -17.0546,2.64687 -31.27605,15.64823 -41.25,37.03125 -9.90654,21.2385 -14.0625,43.97722 -14.0625,68.4375 0,5.34991 0.37065,10.64759 0.9375,15.9375 -3.08757,8.80151 -7.34333,18.78432 -12.65625,29.0625 l -0.46875,0 c -1.45665,1.91088 -2.74197,3.79347 -4.21875,5.625 0,-6.482 1.3515,-14.90009 3.75,-24.375 1.245,-4.90459 2.16151,-9.01825 2.8125,-12.1875 0.651,-3.16925 0.9375,-5.05351 0.9375,-7.03125 0,-3.60712 -0.5475,-7.12642 -2.8125,-9.375 -2.44587,-2.46017 -6.21405,-3.28125 -10.78125,-3.28125 -2.30273,0 -4.38911,0.89282 -6.09375,2.34375 -1.70465,1.45093 -3.17292,2.98549 -4.21875,5.15625 -2.09168,4.34152 -3.25524,10.34917 -4.21875,17.8125 -0.9084,6.95499 -2.4551,14.04588 -3.75,21.09375 -1.31826,-6.719 -2.86167,-13.93632 -4.21875,-20.15625 -1.46144,-6.69826 -2.8425,-12.07006 -5.15625,-15.9375 -1.15688,-1.93372 -2.9148,-3.46217 -4.6875,-4.6875 -1.7727,-1.22533 -3.88418,-1.62456 -6.09375,-1.40625 -4.60119,0.53581 -8.38409,3.3626 -11.71875,7.5 -3.33467,4.1374 -6.57978,9.8084 -9.375,16.875 -3.65217,10.75507 -7.52519,21.53252 -11.25,32.34375 -0.1947,-0.5817 -0.26085,-0.7746 -0.46875,-1.40625 -1.5117,-4.60986 -3.54851,-8.33824 -6.09375,-11.25 -2.54525,-2.91175 -5.95625,-4.6875 -9.84375,-4.6875 -8.02215,0 -14.40282,5.82971 -19.6875,15 -0.75225,1.30455 -1.2261,1.71948 -1.875,2.8125 -0.081,-4.20909 0.2106,-8.59187 -0.46875,-11.71875 -1.1511,-5.20884 -5.4192,-8.95813 -10.78125,-9.84375 -4.03751,-0.80749 -8.31986,0.93317 -11.71875,3.75 -3.3989,2.81684 -6.41463,6.74501 -9.84375,12.1875 -2.74199,4.35573 -5.99403,12.14985 -8.90625,17.8125 0.7158,-4.35828 1.64562,-8.56201 1.875,-11.25 0.1485,-1.73452 0.0405,-3.47988 0,-4.6875 -0.0405,-1.20765 0.71385,-1.95837 -0.9375,-4.21875 a 4.4250315,4.4250315 0 0 0 -0.46875,-0.46875 4.4250315,4.4250315 0 0 0 -0.9375,-0.46875 4.4250315,4.4250315 0 0 0 -2.34375,-0.46875 c 0.048,-0.7953 -0.117,-1.58178 0,-2.8125 0.1788,-1.8994 0.39285,-3.62476 0.46875,-4.6875 0.0765,-1.06275 0,-1.03905 0,-1.875 0,-3.18777 0.01,-6.37943 -1.875,-8.90625 -2.28083,-2.98795 -6.18039,-3.75 -10.3125,-3.75 -8.25768,0 -17.01306,5.11393 -27.65625,14.0625 -10.05108,8.45936 -18.10749,20.65593 -24.375,35.625 -1.50782,-0.7323 -2.81372,-1.875 -4.6875,-1.875 -3.03755,0 -4.18803,1.1106 -6.09375,2.34375 -1.90572,1.23315 -4.18399,2.96234 -7.03125,5.15625 -2.827221,2.17272 -5.886134,4.04132 -8.906252,6.09375 0.952199,-4.61797 2.051801,-9.22168 2.8125,-14.0625 1.303652,-8.34325 1.848165,-12.52296 1.40625,-15.9375 -0.313326,-1.95086 -1.306999,-3.49812 -2.8125,-4.6875 5.920062,-5.43852 13.001942,-11.24292 24.843752,-18.75 14.43084,-9.15126 25.67923,-16.42058 33.75,-21.5625 4.14682,-2.64724 7.18938,-4.69548 9.375,-6.5625 1.09281,-0.93351 2.06367,-1.87308 2.8125,-2.8125 0.7488,-0.93942 1.40625,-1.96834 1.40625,-4.21875 0,-3.53285 -1.4745,-6.81559 -4.21875,-9.84375 -1.33965,-1.47784 -2.59799,-2.85756 -4.21875,-3.75 -1.505,-0.82869 -4.05293,-0.95005 -6.09375,0 -0.15705,0.073 -0.31845,-0.0901 -0.46875,0 -21.61122,10.94928 -46.47747,27.26904 -74.062502,49.21875 -27.751971,22.09199 -52.810738,46.23717 -75.9374996,72.1875 -1.97265722,2.3117 -1.90889717,5.68992 -0.93750002,7.96875 0.97139712,2.27883 2.58934712,4.20606 4.68750002,6.5625 2.1851509,2.43703 4.361388,4.17528 7.0312496,5.15625 2.669862,0.981 6.394172,0.62295 8.4375,-1.40625 a 4.4250315,4.4250315 0 0 0 0,-0.46875 c 10.339248,-11.27184 20.076929,-22.18965 29.53125,-32.34375 6.237816,-6.69025 12.170573,-11.92854 18.28125,-17.34375 l -1.40625,8.90625 a 4.4250315,4.4250315 0 0 0 0,0.46875 l -3.75,26.25 c -6.065943,4.02555 -11.785695,8.11096 -16.40625,12.1875 -5.024527,4.433835 -9.402016,8.7048 -14.0625,13.125 a 4.4250315,4.4250315 0 0 0 -0.46875,0 c -2.413995,2.29329 -4.259638,4.45533 -5.625,6.09375 -0.68268,0.81915 -0.921045,1.518885 -1.40625,2.34375 -0.485205,0.82485 -0.9375,1.5135 -0.9375,3.28125 0,3.84555 1.34175,5.7375 3.75,8.90625 1.26195,1.66593 2.456826,2.720925 3.75,3.75 1.29318,1.02915 2.947955,1.875 5.15625,1.875 2.55513,0 2.918586,-0.4191 3.75,-0.9375 0.83142,-0.5184 1.759062,-1.0437 2.8125,-1.875 2.106876,-1.66254 4.454771,-4.224255 7.96875,-7.5 2.998328,-2.801385 4.623984,-3.666885 7.03125,-5.625 -0.350505,1.83492 -0.660945,3.76812 -0.9375,5.625 -0.88872,5.92221 -0.9375,11.9127 -0.9375,18.75 0,5.737695 -0.2418,11.58909 -0.46875,16.875 -0.228375,5.138475 -0.70401,10.400295 -0.9375,15.46875 0,3.539145 0.69921,6.32373 1.40625,8.4375 0.98595,2.92739997 2.827731,6.10899 6.09375,9.375 3.344223,3.352605 7.129457,5.625 11.71875,5.625 a 4.4250315,4.4250315 0 0 0 0.46875,0 c 3.352035,-0.4938 6.26459,-2.837055 7.5,-5.625 0.821475,-1.90194 1.20324,-3.76248 0.9375,-6.09375003 -0.0201,-0.17565 0.03285,-0.2853 0,-0.46875 -0.0073,-0.17265 0.0141,-0.2997 0,-0.46874997 -0.1458,-1.74639 -0.400275,-3.254985 -0.9375,-4.6875 -0.249495,-0.65175 -0.35337,-1.4652 -0.46875,-1.875 -0.0288,-0.102 -0.4194,0.09 -0.46875,0 0,-0.4575 -0.10275,-0.5319 0,-0.46875 0.0079,-16.566285 0.36321,-30.338475 0.9375,-41.25 0.53151,-10.357005 2.05239,-23.53455 3.75,-38.90625 4.734236,-4.69221 8.849877,-9.227 12.65625,-12.1875 4.202722,-3.27039 7.572772,-5.82462 10.312502,-7.96875 0.0919,-0.072 0.37627,0.072 0.46875,0 -0.91256,5.16858 -0.9375,10.72806 -0.9375,16.875 0,6.38664 0.9492,12.248895 4.21875,17.34375 3.45196,5.427165 9.65623,8.4375 16.875,8.4375 4.69378,0 9.03574,-2.20044 12.65625,-6.09375 3.62051,-3.89331 7.02509,-9.481755 10.3125,-16.40625 1.04835,-2.21432 0.94935,-3.53075 1.875,-5.625 -0.21345,3.2984 -0.37485,7.23672 -0.46875,9.375 -0.075,1.711965 -0.4641,2.7261 -0.46875,3.75 -0.002,0.51195 -0.021,0.9966 0,1.40625 0.021,0.40965 0.0615,0.66405 0.46875,1.875 a 4.4250315,4.4250315 0 0 0 0,0.46875 c 1.1313,2.700885 3.51805,4.62486 6.09375,5.625 2.57569,1.0002 5.6157,0.9375 8.90625,0.9375 3.10603,0 6.55636,-0.44685 8.90625,-3.28125 a 4.4250315,4.4250315 0 0 0 0.46875,-0.9375 4.4250315,4.4250315 0 0 0 0.46875,-0.9375 c 3.93888,-18.60418 8.7256,-35.9446 14.0625,-51.5625 4.28262,-12.58625 8.8272,-20.93492 13.59375,-26.71875 0.069,0.75465 0.46875,0.9999 0.46875,1.875 0,4.24468 -0.705,13.60877 -1.875,27.1875 -1.1562,13.57806 -1.875,21.27808 -1.875,24.84375 0,5.12052 0.0435,9.26916 3.75,12.1875 1.92135,1.507965 4.11465,3.36384 6.5625,5.15625 1.56007,1.1334 3.27963,1.90302 5.15625,2.34375 1.87662,0.4407 4.36161,0.0495 6.09375,-0.9375 a 4.4250315,4.4250315 0 0 0 0.46875,-0.46875 4.4250315,4.4250315 0 0 0 0.46875,-0.46875 4.4250315,4.4250315 0 0 0 0.46875,-0.9375 4.4250315,4.4250315 0 0 0 0.46875,-1.40625 c 0.91905,-10.98173 2.22501,-24.72723 3.75,-41.25 1.3488,-14.72338 6.77004,-23.77463 15.9375,-29.0625 0.4203,3.27905 0.9375,7.42145 0.9375,12.1875 0,2.95161 0.114,5.87949 0,8.4375 -0.105,2.54663 -0.46875,4.98065 -0.46875,7.96875 0,5.70341 0.82305,9.94752 2.8125,13.125 1.72989,2.76273 4.96768,5.31477 8.90625,7.03125 l 0,0.46875 c 0.129,0.054 0.33735,-0.0525 0.46875,0 3.91177,1.50248 8.10346,2.07195 11.71875,1.40625 1.66197,-0.3324 2.38237,-1.3152 2.8125,-1.875 0.43005,-0.5598 0.7689,-1.01415 0.9375,-1.40625 0.3372,-0.78405 0.26715,-1.03635 0.46875,-1.875 0.40305,-1.67721 1.00785,-4.19035 1.40625,-7.03125 0.7968,-5.6818 1.3449,-13.79316 2.34375,-24.84375 1.64608,-18.12157 6.3111,-30.23448 12.65625,-37.5 1.68832,3.30375 3.44349,6.55673 5.15625,9.84375 0.6846,18.21308 1.4202,36.37242 2.34375,54.375 a 4.4250315,4.4250315 0 0 0 0.9375,2.8125 c 2.27739,2.56956 4.46439,4.58054 6.5625,6.09375 2.50329,1.8018 5.64664,2.8125 8.90625,2.8125 2.37408,0 5.39139,-0.68145 7.5,-2.8125 1.9288,-1.91847 2.32051,-4.09794 2.8125,-6.5625 0.492,-2.46456 0.46875,-5.41258 0.46875,-8.90625 0,-2.91729 0.1365,-5.72323 0,-8.90625 -0.126,-3.16001 -0.46875,-6.20905 -0.46875,-8.90625 1.2969,2.06592 2.45398,3.78893 4.21875,5.15625 1.93965,1.50282 4.54485,2.34375 7.03125,2.34375 9.52209,0 17.71671,-6.08409 22.5,-16.40625 2.52106,-5.46201 4.04989,-10.92345 6.09375,-16.40625 0.47505,1.37505 0.35055,1.70609 0.9375,3.28125 3.24438,8.61359 10.41943,14.0625 19.21875,14.0625 8.38606,0 15.73578,-6.65623 23.4375,-18.28125 3.93084,-5.9217 8.7846,-16.43549 13.125,-24.84375 0.0555,6.86322 0.83025,12.88136 4.21875,17.34375 3.61848,4.76517 9.98749,6.5625 17.34375,6.5625 6.39648,0 12.44599,-2.59345 17.8125,-7.5 5.3665,-4.90655 10.03267,-11.9829 14.53125,-21.09375 1.14495,-2.3207 1.77745,-3.15721 2.8125,-5.15625 -1.36575,5.20869 -2.13308,8.09785 -3.75,14.53125 -4.42725,17.5712 -6.5625,35.75215 -6.5625,55.3125 0,7.54527 -0.489,16.17469 -1.40625,25.3125 -0.94665,9.282 -1.88054,18.96213 -2.8125,29.53125 a 4.4250315,4.4250315 0 0 0 0,0.46875 c 0,4.678935 0.7239,8.99475 3.28125,12.65625 2.0377,2.921265 4.07907,5.753805 6.09375,8.4375 2.53203,3.37926 5.74351,5.625 9.84375,5.625 2.81164,0 5.17503,-1.39935 6.5625,-3.28125 a 4.4250315,4.4250315 0 0 0 0,-0.46875 c 1.15515,-1.619685 0.79515,-2.037225 0.9375,-2.8125 0.1425,-0.7752 0.37005,-1.30965 0.46875,-2.34375 0.1974,-2.06832 0.31965,-4.88163 0.46875,-8.4375 0.2982,-7.111725 0.2379,-17.51364 0.46875,-30.9375 0.48195,-26.74346 1.77732,-46.51452 3.28125,-59.53125 1.49055,-12.95749 4.82557,-30.32129 9.84375,-52.03125 2.52132,-10.91665 4.36758,-19.21986 5.625,-25.3125 0.62865,-3.04632 1.0833,-5.64517 1.40625,-7.5 0.32295,-1.85483 0.46875,-2.82757 0.46875,-4.21875 0,-3.05047 -0.20805,-5.55636 -1.875,-7.96875 -1.66697,-2.41239 -4.7621,-3.75 -7.5,-3.75 -5.97569,0 -10.41861,3.89708 -15.9375,10.3125 -5.51889,6.41542 -11.82191,15.75243 -19.21875,28.125 -7.26366,12.13617 -13.37693,20.87279 -17.8125,26.25 -1.5399,1.86681 -2.67122,2.76139 -3.75,3.75 0.1095,-4.48277 1.44015,-13.47946 4.21875,-28.125 1.458,-7.71501 2.94354,-13.74032 3.75,-17.8125 0.4032,-2.03609 0.72045,-3.54679 0.9375,-4.6875 0.108,-0.57036 -0.0645,-1.02451 0,-1.40625 0.0645,-0.38173 0,-0.39316 0,-1.40625 0,-4.2964 -0.9813,-8.17149 -4.21875,-10.3125 -2.17671,-1.44344 -4.9299,-2.26923 -8.90625,-3.28125 -3.12516,-0.62503 -6.8204,-0.32342 -9.375,1.875 -2.55461,2.19842 -3.13907,5.53254 -3.28125,8.90625 -0.19934,4.57986 -2.10365,10.11998 -5.15625,17.34375 -2.97287,7.04184 -9.31298,19.19201 -19.6875,36.09375 -5.14448,8.39147 -9.71238,14.74106 -13.125,18.75 -1.70631,2.00446 -3.17816,3.43673 -4.21875,4.21875 -1.04055,0.78195 -1.41795,0.9375 -0.9375,0.9375 0.1215,0 0.19125,-0.005 -0.46875,-0.9375 -0.66,-0.9321 -1.60182,-2.70987 -2.34375,-5.625 -1.578,-6.1984 -2.8125,-12.87674 -2.8125,-20.15625 0,-3.1493 0.2838,-5.32992 0.46875,-7.03125 8.89065,-15.27813 18.51985,-33.79495 28.59375,-55.78125 10.2817,-22.45635 15.46875,-38.18423 15.46875,-49.21875 0,-3.61413 -0.174,-6.71831 -2.34375,-9.375 -2.1698,-2.65669 -5.9991,-3.78358 -9.375,-3.28125 z m -65.625,62.8125 c -2.87817,0 -5.23508,0.97091 -7.5,2.8125 -2.26493,1.8416 -4.70781,4.70671 -7.03125,7.96875 -2.28443,3.21125 -3.58793,5.9907 -4.6875,8.4375 -1.02915,2.28996 -1.89857,3.90919 -1.40625,6.5625 0.0145,0.12675 -0.018,0.34001 0,0.46875 0.3576,2.5445 1.47315,5.4099 3.75,7.5 2.59066,2.41752 6.1203,3.04139 9.375,2.34375 3.94894,-0.72948 7.38948,-2.94896 11.71875,-7.03125 4.55098,-4.29184 7.5,-9.24579 7.5,-14.53125 0,-4.05641 -0.2388,-7.47328 -2.34375,-10.3125 -2.10494,-2.83922 -5.93082,-4.21875 -9.375,-4.21875 z"
         id="path3059" /><path
         inkscape:connector-curvature="0"
         id="path3021"
         style="fill:url(#linearGradient5583);fill-opacity:1;fill-rule:nonzero;stroke:none"
         d="m 406.21168,-301.0807 c -4.21125,6.07876 -8.54812,14.51626 -12.99375,25.30501 -4.6875,9.85124 -8.56125,20.69062 -11.61562,32.52 -3.03938,11.8275 -4.56375,21.72937 -4.56375,29.71312 3.04687,-4.22625 7.25812,-11.43187 12.66375,-21.62062 5.37562,-10.20188 10.12875,-20.58188 14.23125,-31.12688 4.10062,-10.54875 7.26562,-19.74 9.49125,-27.59813 2.2275,-7.84499 2.8725,-12.35624 1.935,-13.52812 -3.04688,2.10188 -6.08625,4.21875 -9.14813,6.33562 z m -240.10293,150.10951 0,-5.27325 c 0,-3.03938 0.40275,-4.79813 1.2231,-5.27438 0.82035,-0.46875 2.34375,-0.8268 4.57031,-1.04625 2.22657,-0.23445 3.34726,-0.9525 3.34726,-2.12437 0,-7.485 -1.4136,-11.2425 -4.22607,-11.2425 -8.66455,0 -18.03955,11.2425 -28.125,33.74982 -10.07812,22.5 -15.11718,39.84375 -15.11718,52.03855 0,2.10207 0.1245,3.515625 0.35887,4.211445 5.625,-6.335445 11.25731,-12.766125 16.875,-19.335945 9.82912,-16.17187 16.63331,-29.7583 20.39063,-40.78125 0.46875,-0.93015 0.70305,-2.57812 0.70305,-4.92187 z m 168.92606,-74.1795 c -1.53188,-1.40625 -2.40938,-3.165 -2.65125,-5.27438 -0.46125,-1.8675 1.47187,-5.85937 5.80687,-11.95312 4.34438,-6.09938 7.91063,-9.14063 10.72313,-9.14063 4.92187,0 7.38375,3.51563 7.38375,10.54688 0,3.51562 -1.99313,7.14187 -5.9775,10.89937 -3.97688,3.75 -7.25813,5.85938 -9.83625,6.33563 -2.11688,0.45375 -3.93375,0 -5.44875,-1.41375 z M 8.4256334,-96.29582 c -3.8671875,-4.34325 -5.0976563,-7.3243 -3.6914063,-8.97225 22.9760809,-25.78125 48.2225809,-49.62075 75.7616439,-71.54325 27.539059,-21.91312 51.972749,-38.26875 73.308189,-49.0425 1.17195,-0.70312 2.92969,0.22688 5.27344,2.8125 2.33643,2.57813 3.51563,5.0325 3.51563,7.37625 0,1.41188 -4.04307,4.6875 -12.129,9.84938 -8.09326,5.15625 -19.34326,12.30562 -33.75732,21.44625 -14.40675,9.13312 -24.660564,16.99125 -30.754314,23.54812 1.40625,0.47445 2.863687,0.8775 4.394437,1.245 1.523438,0.3432 2.402438,1.2225 2.6295,2.63625 0.241695,1.8675 -0.293055,6.89906 -1.574812,15.10218 -1.289063,8.20313 -2.753813,16.17188 -4.394438,23.91357 6.09375,-3.75 11.945813,-7.80038 17.578127,-12.12882 5.61769,-4.32861 9.13331,-6.51131 10.54687,-6.51131 1.64063,0 3.98438,1.062 7.03125,3.17138 6.32813,-16.64794 14.64844,-29.29762 24.96094,-37.977 10.30519,-8.66437 18.50831,-12.99937 24.60938,-12.99937 3.27393,0 5.44181,0.71062 6.50381,2.10187 1.05465,1.41375 1.58212,3.51562 1.58212,6.33563 0,0.24195 -0.17595,2.23312 -0.5274,5.96812 -0.35895,3.7575 -0.30015,5.9925 0.17595,6.68813 0.70305,0.92999 2.10206,1.17195 4.21875,0.69569 0.69585,0.9525 -0.066,7.63125 -2.29257,20.04638 -2.22655,12.41455 -3.5668,20.96925 -4.04287,25.65675 7.749,-18.51563 14.88337,-32.98088 21.45337,-43.4175 6.5625,-10.41563 12.18,-15.16125 16.8675,-14.22375 4.21125,0.69555 6.73688,2.92875 7.56563,6.67875 0.8118,3.73687 1.23,9.00937 1.23,15.82125 0,4.45275 0.46125,6.7965 1.40625,7.01625 0.22695,0 2.7975,-4.26993 7.72687,-12.8175 4.92938,-8.55375 10.19625,-12.84 15.82125,-12.84 5.16375,0 9.14813,4.28625 11.95313,12.84 2.8125,8.54757 4.56187,12.8175 5.28,12.8175 4.91437,-14.52375 9.83625,-29.0625 14.76562,-43.57875 5.38302,-13.60882 11.13365,-20.7507 17.2199,-21.45945 4.6875,-0.46312 8.4375,5.74875 11.25,18.63938 2.8125,12.89062 5.74125,26.95312 8.78812,42.1873 3.28875,-14.52355 5.85938,-29.00418 7.74188,-43.4173 1.86,-14.4075 5.26687,-21.6225 10.19625,-21.6225 3.735,0 6.26062,0.6525 7.54312,1.9425 1.29,1.28062 1.94063,3.45562 1.94063,6.495 0,2.34375 -1.2225,8.38687 -3.69188,18.11437 -2.46,9.71813 -3.69,18.0975 -3.69,25.12125 0,3.75 0.35055,7.63125 1.06875,11.60888 3.7275,-4.68825 7.485,-9.4845 11.2425,-14.41388 5.6175,-10.78125 10.06313,-20.85187 13.35188,-30.22687 -0.70313,-5.625 -1.05375,-11.37563 -1.05375,-17.235 0,-23.91188 4.79625,-46.17938 14.41312,-66.79688 9.61688,-20.6175 22.02375,-32.09437 37.25813,-34.45875 4.6875,-0.6975 7.03125,1.99875 7.03125,8.0925 0,9.375 -5.09063,25.19438 -15.285,47.46 -10.20188,22.26563 -19.74563,41.01563 -28.65938,56.25 -0.2268,1.8675 -0.345,4.6875 -0.345,8.445 0,7.72688 0.82125,14.81063 2.46188,21.255 1.64062,6.44625 3.98437,9.6675 7.03125,9.6675 4.21875,0 11.55,-8.48812 21.97125,-25.48687 10.43062,-16.99313 17.2275,-29.23875 20.39062,-36.73125 3.1725,-7.5075 4.86375,-13.95188 5.09813,-19.33688 0.22687,-5.38312 2.69625,-7.61625 7.38375,-6.67875 3.7425,0.9525 6.32062,1.8825 7.73437,2.82 1.40625,0.93 2.10188,3.16313 2.10188,6.67125 0,0.70313 -1.4643,8.7825 -4.3875,24.25125 -2.93625,15.47625 -4.4025,25.67063 -4.4025,30.585 0,3.28875 0.48375,5.0475 1.41375,5.27438 3.98437,1.64062 13.29375,-9.78563 27.94312,-34.26188 14.6475,-24.50062 25.13625,-36.75375 31.47188,-36.75375 3.51562,0 5.28,2.58563 5.28,7.74938 0,2.10187 -2.53313,14.0625 -7.56563,35.85187 -5.04,21.80438 -8.32125,39.33 -9.84375,52.56563 -1.53,13.24237 -2.5125,33.27412 -2.99625,60.11737 -0.46125,26.821125 -1.17195,40.883625 -2.10187,42.1875 -0.945,1.28175 -1.89,1.918875 -2.82,1.918875 -1.8675,0 -3.86625,-1.40625 -5.96813,-4.21143 -2.11687,-2.81982 -4.1025,-5.56632 -5.9775,-8.25432 -1.8825,-2.695305 -2.8125,-6.042555 -2.8125,-10.03425 0.93,-10.546875 1.8675,-20.434495 2.8125,-29.699625 0.93,-9.26512 1.40625,-17.7613 1.40625,-25.48837 0,-19.21875 2.1675,-37.44825 6.50438,-54.66075 4.32937,-17.22563 7.785,-30.06563 10.37062,-38.50313 -3.04687,0 -8.90625,8.78813 -17.57812,26.36625 -8.67938,17.57813 -18.16313,26.36813 -28.47563,26.36813 -6.57,0 -11.12625,-1.68563 -13.71187,-5.09063 -2.58563,-3.405 -3.86625,-8.38687 -3.86625,-14.94187 0,-3.7575 0.3,-7.38188 0.8775,-10.8975 0.59445,-3.53063 1.59,-8.21813 2.98875,-14.0775 -9.13313,20.6325 -17.40188,36.51187 -24.79125,47.64375 -7.37625,11.13375 -13.88063,16.6995 -19.49813,16.6995 -7.27312,0 -12.31125,-3.75638 -15.13125,-11.24325 -2.7975,-7.5075 -4.44562,-12.66375 -4.91437,-15.47625 -2.8125,9.375 -6.38813,18.75 -10.71563,28.12575 -4.34437,9.375 -10.37812,14.0625 -18.1125,14.0625 -3.03937,0 -5.80125,-2.05068 -8.26312,-6.15225 -2.46,-4.10156 -4.28438,-6.04256 -5.44125,-5.80088 -1.18695,0.23445 -1.77188,3.0542 -1.77188,8.4375 0,3.03957 0.066,6.04257 0.18195,8.96495 0.126,2.92968 0.17625,5.92518 0.17625,8.96475 0,6.5698 -0.70305,10.54687 -2.11687,11.95312 -1.39875,1.4136 -2.7975,2.10938 -4.20375,2.10938 -2.11688,0 -4.22625,-0.7689 -6.34313,-2.29257 -2.10187,-1.51594 -4.08562,-3.33244 -5.96812,-5.45644 -0.9375,-18.27394 -1.75125,-36.66507 -2.44688,-55.18894 -2.82,-5.38312 -5.6325,-10.76625 -8.445,-16.16437 -9.85125,7.5075 -15.76125,22.26562 -17.76187,44.29032 -1.99125,22.03125 -3.56625,33.16405 -4.73813,33.39843 -2.58562,0.47609 -5.6325,0 -9.14062,-1.40625 -3.5232,-1.3917 -5.9907,-3.20794 -7.38945,-5.44181 -1.39875,-2.23407 -2.10188,-5.91075 -2.10188,-11.07432 0,-2.58543 0.051,-5.27343 0.1668,-8.07862 0.126,-2.81981 0.19125,-5.63963 0.19125,-8.45943 0,-5.38333 -0.2418,-9.82895 -0.7182,-13.34457 -0.47625,-3.51563 -2.10187,-4.6875 -4.91437,-3.51563 -11.49188,5.85938 -17.99625,17.04338 -19.51125,33.58145 -1.52438,16.51612 -2.76938,30.28555 -3.69188,41.308495 -1.63312,0.93015 -3.765,0.45405 -6.33562,-1.4136 -2.57063,-1.882305 -4.6875,-3.456925 -6.32063,-4.738685 -1.65562,-1.30364 -2.46,-4.28475 -2.46,-8.97225 0,-2.8125 0.5925,-11.02294 1.74938,-24.60937 1.17195,-13.60107 1.76625,-22.72707 1.76625,-27.41419 0,-3.99188 -0.3675,-6.9225 -1.0557,-8.80313 -0.71055,-1.86937 -1.76438,-2.11125 -3.17063,-0.6975 -6.79687,6.09375 -12.89062,17.04413 -18.27375,32.86463 -5.406,15.82012 -10.0935,33.10537 -14.06325,51.85537 -1.17195,1.4136 -3.04687,2.109375 -5.625,2.109375 -5.86668,0 -9.3823,-1.4136 -10.55418,-4.21143 -0.23445,-0.69585 0.1245,-7.434 1.05465,-20.214745 0.93015,-12.77345 1.4136,-20.91075 1.4136,-24.42638 -1.88209,8.89896 -5.98365,20.03178 -12.31178,33.39846 -6.33544,13.34475 -12.53906,20.03175 -18.6255,20.03175 -6.08644,0 -10.49569,-2.109375 -13.18369,-6.335445 -2.70262,-4.21143 -4.04287,-9.250485 -4.04287,-15.109865 0,-6.09375 0.40275,-11.47707 1.23037,-16.16457 0.82032,-4.70212 1.57482,-8.33493 2.28525,-10.91305 -3.99168,2.35838 -7.33162,4.57762 -10.01962,6.67968 -2.69531,2.10938 -6.15225,4.80469 -10.378314,8.09325 -4.21875,3.28125 -8.90625,7.49269 -14.0625,12.65625 -1.867688,16.640625 -3.112875,30.520125 -3.684188,41.65275 -0.585945,11.133 -0.878805,25.144125 -0.878805,42.02643 0,0.45405 0.292875,1.45035 0.878805,2.98107 0.57132,1.52343 0.879,2.98818 0.879,4.39444497 0.227055,0.9375 -0.066,2.32912503 -0.879,4.21143003 -0.827625,1.867695 -2.050687,2.92968 -3.691312,3.171375 -2.578125,0 -5.339438,-1.46475 -8.261813,-4.394445 -2.929687,-2.92968003 -4.746,-5.456625 -5.456437,-7.566 -0.703125,-2.102055 -1.047375,-4.577625 -1.047375,-7.375485 0.22707,-4.929195 0.46875,-10.019445 0.703125,-15.29289 0.227055,-5.28825 0.34425,-10.83993 0.34425,-16.699305 0,-6.78957 0.40275,-12.94182 1.230375,-18.456945 0.820305,-5.507805 1.823812,-11.20611 2.995687,-17.043555 -3.984375,2.34375 -9.441,6.72375 -16.355062,13.18368 -6.914063,6.44532 -10.83975,9.667875 -11.769938,9.667875 -1.171875,0 -2.8785,-1.46475 -5.09775,-4.39443 -2.226562,-2.929695 -3.33975,-4.995195 -3.33975,-6.152445 0,-1.17195 2.34375,-3.99168 7.03125,-8.444805 4.6875,-4.44582 9.492188,-8.84025 14.414063,-13.1835 4.914562,-4.33593 10.65675,-8.61338 17.226562,-12.83213 l 4.211438,-28.125 3.867187,-21.78955 c -9.375,7.48537 -18.801375,16.34775 -28.293562,26.52843 -9.4995,10.20262 -19.394438,20.9325 -29.706957,32.17519 -2.116686,2.10206 -5.097656,0.98869 -8.9721556,-3.33244 z" /></g></g></svg>